<?xml version="1.0" encoding="utf-8"?>
<!-- Generator: Adobe Illustrator 25.2.3, SVG Export Plug-In . SVG Version: 6.00 Build 0)  -->
<svg version="1.1" id="Capa_1" xmlns="http://www.w3.org/2000/svg" xmlns:xlink="http://www.w3.org/1999/xlink" x="0px" y="0px"
	 viewBox="0 0 522 386" style="enable-background:new 0 0 522 386;" xml:space="preserve">
<style type="text/css">
	.st0{fill:#F62348;}
</style>
<g>
	<g>
		<path class="st0" d="M189.1,383c-14.2,0-24.4-2.9-30.8-8.7s-9.7-15.5-10.1-29c-0.1-3.9-0.2-7.1-0.2-10.1c0-2.9,0.1-6,0.3-9.1h26.6
			c-0.2,2.2-0.4,4.8-0.4,7.6c-0.1,2.9-0.1,5.6-0.1,8.2c0.1,2.7,0.2,5,0.3,6.8c0.4,4.2,1.7,7.2,3.8,9.3c2.2,2.1,5.4,3.2,9.9,3.2
			c4.4,0,7.6-1,9.9-3.2c2.2-2.2,3.4-5.3,3.7-9.3c0.6-6.7,0.9-13.4,1-19.7c0.1-6.4-0.2-12.7-0.8-18.7c-0.2-3.8-1.4-6.6-3.5-8.4
			c-2.1-1.9-5.1-2.8-9-2.8c-2.9,0-5.3,0.5-7.2,1.3c-2.1,0.9-3.7,2.2-4.8,3.9c-1.1,1.6-1.8,3.7-1.9,6.1h-25.2v-93.5h75.8v23.4H177
			V288h4.3c1.6-3.1,4.3-5.7,7.9-7.8c3.6-2.2,7.9-3.3,12.9-3.3c8.6,0,15.1,2.9,19.3,8.7c4.4,5.9,6.7,13.9,7.2,24
			c0.2,4.2,0.4,8.3,0.4,12.5c0.1,4.2,0,8.1-0.1,12c-0.1,3.9-0.3,7.6-0.5,11.1c-0.9,8.9-2.7,16.3-5.4,21.8
			c-2.8,5.6-6.8,9.6-12.4,12.2C205.4,381.8,198.1,383,189.1,383z M280.2,383c-12.4,0-21.9-3.2-28.7-9.7
			c-6.7-6.5-10.3-15.8-10.5-27.8c-0.2-10-0.4-20.2-0.4-30.7c-0.1-10.5-0.1-21,0-31.5c0.1-10.5,0.2-20.8,0.4-30.8
			c0.3-12.1,3.8-21.4,10.5-27.8c6.7-6.4,16.3-9.6,28.7-9.6c12.3,0,21.8,3.2,28.5,9.6c6.7,6.4,10.4,15.7,10.6,27.8
			c0.3,7.5,0.5,15.3,0.5,23.1c0.1,7.8,0.2,15.7,0.2,23.6c0,7.9-0.1,15.8-0.2,23.5c-0.1,7.7-0.3,15.4-0.5,22.8
			c-0.4,12.1-3.9,21.3-10.6,27.8C302,379.8,292.5,383,280.2,383z M280.2,361.3c8.1,0,12.3-3.7,12.6-11.1c0.4-11.4,0.7-23,0.9-34.7
			c0.2-11.8,0.2-23.4,0-34.8c-0.1-11.5-0.4-22.5-0.9-33.2c-0.2-7.2-4.5-10.8-12.6-10.8c-8.3,0-12.5,3.6-12.7,10.8
			c-0.2,8.6-0.4,17.3-0.7,26c-0.1,8.6-0.2,17.5-0.2,26.2c0,8.6,0.1,17.3,0.2,25.8c0.2,8.5,0.4,16.8,0.7,24.7
			C267.7,357.6,272,361.3,280.2,361.3z"/>
		<path class="st0" d="M330.2,351l39.3-103.8h4.6L334.8,351H330.2z M364.2,351.6c-2.7,0-4.7-0.8-6.1-2.2c-1.4-1.5-2.2-3.5-2.2-6.1
			c0-3.3-0.1-6.7-0.1-10.3s0-7,0-10.5c0-3.6,0.1-7,0.1-10.5c0-2.6,0.8-4.6,2.2-6c1.4-1.5,3.5-2.2,6.1-2.2c2.7,0,4.7,0.8,6.1,2.2
			c1.4,1.4,2.2,3.4,2.4,6c0,2.6,0.1,5.2,0.1,7.8c0,2.7,0.1,5.3,0.1,7.9c0,2.7,0,5.3-0.1,7.9c0,2.7,0,5.2-0.1,7.6
			c-0.1,2.7-1,4.7-2.4,6.1C368.7,350.8,366.7,351.6,364.2,351.6z M364.2,347.6c1.2,0,2.2-0.4,2.9-1c0.7-0.7,1-1.6,1-2.7
			c0.1-2.5,0.2-5.1,0.2-7.8s0.1-5.6,0.1-8.4c0-2.9,0-5.6-0.1-8.4c0-2.8-0.1-5.4-0.2-7.9c0-1-0.4-1.9-1-2.7c-0.6-0.8-1.5-1.1-2.9-1.1
			c-1.2,0-2.2,0.4-2.9,1.1c-0.6,0.8-1,1.6-1,2.7c-0.1,3.3-0.2,6.8-0.2,10.6c0,3.7,0,7.4,0,11.1c0,3.7,0.1,7.2,0.2,10.5
			c0,1,0.4,1.8,1,2.7C361.9,347.2,362.9,347.6,364.2,347.6z M338.8,294.6c-2.7,0-4.7-0.8-6.1-2.2c-1.4-1.5-2.2-3.5-2.3-6.1
			c0-3.3-0.1-6.7-0.1-10.3s0-7,0-10.5c0-3.6,0.1-7,0.1-10.5c0.1-2.6,0.9-4.6,2.2-6c1.4-1.5,3.5-2.2,6.1-2.2c2.7,0,4.7,0.8,6.1,2.2
			c1.4,1.4,2.2,3.4,2.4,6c0,2.6,0.1,5.2,0.1,7.8c0,2.7,0.1,5.3,0.1,7.9c0,2.7,0,5.3-0.1,7.9c0,2.7,0,5.2-0.1,7.6
			c-0.1,2.7-1,4.7-2.4,6.1C343.4,293.8,341.4,294.6,338.8,294.6z M338.8,290.7c1.2,0,2.2-0.4,2.9-1s1-1.6,1-2.7
			c0.1-2.5,0.2-5.1,0.2-7.8c0-2.8,0.1-5.6,0.1-8.4c0-2.9,0-5.6-0.1-8.4c0-2.8-0.1-5.4-0.2-7.9c0-1-0.4-1.9-1-2.7
			c-0.6-0.8-1.5-1.1-2.9-1.1c-1.2,0-2.2,0.4-2.9,1.1c-0.6,0.8-1,1.6-1,2.7c-0.1,3.3-0.2,6.8-0.2,10.6c0,3.7,0,7.4,0,11.1
			c0,3.7,0.1,7.2,0.2,10.5c0,1,0.4,1.8,1,2.7C336.5,290.2,337.6,290.7,338.8,290.7z"/>
		<g>
			<path class="st0" d="M343,382c-1.6,0-2.8-0.3-3.4-1c-0.7-0.7-1-1.8-1.1-3.3c0-0.9,0-1.7,0-2.6c0-0.9,0-1.8,0-2.8s0-1.8,0-2.8
				s0-1.7,0-2.6c0-1.5,0.3-2.6,1.1-3.3c0.7-0.7,1.8-1,3.4-1c1.6,0,2.8,0.3,3.4,1c0.6,0.7,1,1.7,1,3.3c0,0.9,0,1.7,0.1,2.6
				c0,0.9,0,1.8,0,2.8s0,1.8,0,2.8c0,1,0,1.7-0.1,2.6c0,1.5-0.5,2.6-1,3.3C345.8,381.7,344.6,382,343,382z M343,379.5
				c0.5,0,0.8-0.1,1-0.3c0.2-0.2,0.3-0.6,0.3-0.9c0-0.9,0.1-1.8,0.1-2.9s0-2.1,0-3.1s0-2.1,0-3.1c0-1,0-1.9-0.1-2.9
				c0-0.5-0.1-0.7-0.3-0.9c-0.2-0.2-0.6-0.3-1-0.3s-0.8,0.1-1,0.3c-0.2,0.2-0.3,0.6-0.3,0.9c0,0.9,0,1.8-0.1,2.9c0,1,0,2.1,0,3.1
				s0,2.1,0,3.1c0,1,0,1.9,0.1,2.9c0,0.5,0.1,0.7,0.3,0.9S342.6,379.5,343,379.5z"/>
			<path class="st0" d="M349.6,381.8V363h7.3v2.8h-4.4v5.3h4.1v2.8h-4.1v8.2h-3V381.8z"/>
			<path class="st0" d="M358.4,381.8V363h7.3v2.8h-4.4v5.3h4.1v2.8h-4.1v8.2h-3V381.8z"/>
		</g>
		<g>
			<path class="st0" d="M334.9,235.9c-1.6,0-2.7-0.3-3.4-1c-0.7-0.7-1-1.8-1-3.3c0-2.4,0-4.9,0-7.3c0-2.5,0-4.9,0-7.3h3.1
				c0,1.6,0,3.3,0,5c0,1.7,0,3.4,0,5.3c0,1.7,0,3.4,0,5c0,0.5,0.1,0.7,0.3,0.9c0.2,0.2,0.6,0.3,1,0.3s0.8-0.1,1-0.3s0.3-0.6,0.3-0.9
				c0-1.6,0-3.3,0-5s0-3.4,0-5.3c0-1.7,0-3.4,0-5h3.1c0,2.4,0.1,4.9,0.1,7.3c0,2.5,0,4.9-0.1,7.3c0,1.5-0.3,2.6-1,3.3
				C337.6,235.5,336.5,235.9,334.9,235.9z"/>
			<path class="st0" d="M341.1,235.6v-18.7h4.1c1.6,0,2.7,0.3,3.4,1c0.7,0.7,1.1,1.7,1.1,3.2c0,0.8,0,1.5,0,2.1c0,0.6,0,1.3,0,2.1
				c0,1.5-0.5,2.5-1.1,3.2c-0.7,0.7-1.8,1-3.4,1h-1v6.2L341.1,235.6L341.1,235.6z M344.2,226.7h1c0.5,0,0.9-0.1,1.1-0.3
				s0.3-0.6,0.5-1c0-0.5,0-0.9,0-1.5c0-0.6,0-1,0-1.5c0-0.5,0-1,0-1.5s-0.1-0.8-0.5-1c-0.2-0.2-0.6-0.3-1.1-0.3h-1V226.7z"/>
			<path class="st0" d="M358.2,235.6v-16.2h-2.9v-2.7h8.7v2.7h-2.9v16.2H358.2z"/>
			<path class="st0" d="M369.4,235.9c-1.6,0-2.7-0.3-3.4-1c-0.7-0.7-1-1.8-1.1-3.3c0-0.9,0-1.7,0-2.6c0-0.9,0-1.8,0-2.7
				c0-0.9,0-1.8,0-2.7c0-0.9,0-1.7,0-2.6c0-1.5,0.3-2.6,1.1-3.3c0.7-0.7,1.8-1,3.4-1c1.6,0,2.7,0.3,3.4,1c0.7,0.7,1,1.7,1,3.3
				c0,0.9,0,1.7,0.1,2.6c0,0.9,0,1.8,0,2.7c0,0.9,0,1.8,0,2.7c0,0.9,0,1.7-0.1,2.6c0,1.5-0.5,2.6-1,3.3
				C372.1,235.5,371,235.9,369.4,235.9z M369.4,233.3c0.5,0,0.8-0.1,1-0.3s0.3-0.6,0.3-0.9c0-0.9,0.1-1.8,0.1-2.9s0-2.1,0-3.1
				s0-2.1,0-3.1c0-1,0-1.9-0.1-2.9c0-0.5-0.1-0.7-0.3-0.9c-0.2-0.2-0.6-0.3-1-0.3c-0.5,0-0.8,0.1-1,0.3s-0.3,0.6-0.3,0.9
				c0,0.9,0,1.8-0.1,2.9c0,1,0,2.1,0,3.1s0,2.1,0,3.1s0,1.9,0.1,2.9c0,0.5,0.1,0.7,0.3,0.9C368.6,233.2,368.9,233.3,369.4,233.3z"/>
		</g>
	</g>
</g>
<g>
	<path class="st0" d="M162.3,96c-4,0-6.8-0.9-8.6-2.7c-1.8-1.8-2.7-4.8-2.9-9c-0.1-2.8-0.1-5.3-0.1-7.5c0-2.2,0-4.3,0-6.5
		c0-2.2,0.1-4.7,0.2-7.6h3.4c-0.1,3.6-0.2,7.3-0.2,11c0,3.7,0.1,7.3,0.2,11c0.1,2.9,0.8,5,2,6.2c1.2,1.3,3.2,1.9,5.9,1.9
		c2.7,0,4.7-0.6,5.8-1.9c1.1-1.3,1.8-3.4,1.9-6.2c0.1-2.5,0.1-4.7,0.1-6.6c0-1.9,0-3.8,0-5.8c0-2-0.1-4.5-0.1-7.3
		c0-3.4-0.4-6.2-1.1-8.4c-0.7-2.2-2.2-3.6-4.6-4.2l-4.6-1.2c-2.5-0.6-4.4-1.6-5.6-2.9c-1.2-1.3-2.1-3-2.5-5.3
		c-0.4-2.2-0.7-5-0.8-8.5c0-2.8,0-6.1,0-9.7c0.1-3.6,0.1-7.1,0.1-10.4c0-2.8,0.4-5,1.2-6.7c0.7-1.7,1.9-2.9,3.6-3.7
		c1.7-0.8,3.8-1.2,6.5-1.2c3.8,0,6.5,0.9,8.2,2.7c1.7,1.8,2.6,4.8,2.7,9c0.1,2.3,0.1,5.1,0.1,8.5c0,3.4,0,7.2-0.1,11.2h-3.5
		c0.1-3.4,0.2-6.7,0.2-10.1s-0.1-6.7-0.2-10c-0.1-2.9-0.7-5-1.9-6.3c-1.1-1.3-3-1.9-5.6-1.9c-2.7,0-4.6,0.6-5.8,1.9
		c-1.1,1.3-1.7,3.4-1.9,6.3c-0.1,3.4-0.2,6.8-0.1,10.1c0,3.4,0.1,6.8,0.1,10.2c0.1,4.3,0.4,7.3,1.1,9.2c0.7,1.9,2.2,3.2,4.7,3.8
		l4.6,1.2c2.5,0.6,4.3,1.5,5.5,2.9c1.2,1.3,2,3.1,2.4,5.3c0.4,2.2,0.7,4.9,0.7,8.1c0.1,3,0.1,5.5,0.1,7.4c0,1.9,0,3.8,0,5.6
		c0,1.8-0.1,4-0.1,6.5c-0.1,4.2-1,7.2-2.8,9C168.9,95.1,166.1,96,162.3,96z"/>
	<path class="st0" d="M181,95.4V3.2h22.6v4.8h-17.3v38.6h16.2v4.8h-16.2v39h17.3v4.8H181z"/>
	<path class="st0" d="M223.3,96.3c-5.3,0-9.1-1.2-11.4-3.5c-2.3-2.4-3.5-6.2-3.5-11.6c-0.1-5.5-0.2-10.8-0.2-16
		c0-5.2-0.1-10.5-0.1-15.7c0-5.2,0-10.5,0.1-15.8c0-5.3,0.1-10.6,0.2-16c0.1-5,1.3-8.8,3.6-11.3c2.3-2.5,6.1-3.8,11.2-3.8
		c5.3,0,9.1,1.2,11.4,3.5c2.3,2.3,3.6,6.2,3.8,11.6c0,1.4,0.1,3.2,0.1,5.5c0,2.2,0,4.4-0.1,6.7c0,2.2-0.1,4.1-0.1,5.6h-7.6
		c0-2,0.1-4.1,0.1-6.2c0-2.2,0-4.3,0-6.5c0-2.2,0-4.2-0.1-6.2c0-2.7-0.6-4.6-1.8-5.8c-1.2-1.2-3.1-1.7-5.7-1.7
		c-2.5,0-4.2,0.6-5.4,1.7c-1.1,1.2-1.7,3.1-1.8,5.8c-0.2,5.7-0.3,11.2-0.3,16.7c-0.1,5.4-0.1,10.8-0.1,16.2c0,5.4,0,10.8,0.1,16.2
		c0.1,5.4,0.2,11,0.3,16.7c0.1,2.7,0.7,4.7,1.8,5.8c1.1,1.2,2.9,1.7,5.4,1.7c2.8,0,4.8-0.6,6-1.7c1.2-1.2,1.9-3.1,1.9-5.8
		c0-2.1,0.1-4.3,0.1-6.6c0-2.3,0-4.6-0.1-6.9c0-2.3-0.1-4.5-0.1-6.6h7.7c0.1,3.3,0.2,6.4,0.2,9.5c0,3.1,0,6.2-0.1,9.5
		c-0.2,5.4-1.5,9.2-3.9,11.6C232.5,95.1,228.7,96.3,223.3,96.3z"/>
	<path class="st0" d="M261.4,96.3c-5.8,0-9.9-1.2-12.4-3.7c-2.5-2.5-3.8-6.6-3.9-12.3c-0.1-5.3-0.2-10.5-0.3-15.6
		c-0.1-5.1-0.1-10.2-0.1-15.3s0-10.2,0.1-15.3c0.1-5.1,0.1-10.3,0.3-15.6c0.1-5.7,1.4-9.8,3.9-12.3c2.5-2.5,6.7-3.7,12.4-3.7
		c5.7,0,9.8,1.2,12.4,3.7c2.5,2.5,3.8,6.6,3.9,12.3c0.1,5.3,0.1,10.6,0.2,15.7c0.1,5.1,0.1,10.2,0.1,15.3c0,5.1,0,10.2-0.1,15.3
		c-0.1,5.1-0.1,10.3-0.2,15.6c-0.1,5.7-1.4,9.8-3.9,12.3C271.2,95,267.1,96.3,261.4,96.3z M261.4,88.7c2.6,0,4.5-0.5,5.6-1.6
		c1.2-1.1,1.7-2.9,1.8-5.4c0.2-5.5,0.3-10.9,0.3-16.4c0.1-5.4,0.1-10.8,0.1-16.2s0-10.8-0.1-16.2c-0.1-5.4-0.2-10.7-0.3-15.9
		c0-2.6-0.6-4.4-1.8-5.5c-1.2-1.1-3-1.6-5.6-1.6c-2.6,0-4.4,0.5-5.6,1.6c-1.2,1.1-1.8,2.9-1.9,5.5c-0.2,5.3-0.3,10.6-0.3,15.9
		c-0.1,5.4-0.1,10.7-0.1,16.2c0,5.4,0.1,10.8,0.1,16.2c0.1,5.4,0.2,10.9,0.3,16.4c0.1,2.5,0.7,4.3,1.9,5.4
		C257,88.2,258.8,88.7,261.4,88.7z"/>
	<path class="st0" d="M285.4,95.4V3.2h16l5.6,29.2l7.4,54h2.7l-1.8-48.8l-0.7-34.3h9.8v92.2h-16.7l-6-32.3l-6.1-50.9h-2.9l1.7,48.6
		l0.7,34.7H285.4z"/>
	<path class="st0" d="M332,95.4V3.2H351c7,0,12,1.5,15.1,4.5c3.1,3,4.7,8,4.9,14.9c0.1,6.3,0.2,12.4,0.2,18.1c0,5.7,0,11.4,0,17.1
		c0,5.7-0.1,11.7-0.2,18c-0.2,7-1.8,12-4.9,15c-3.1,3-8.2,4.6-15.1,4.6H332z M344.4,84.3h6.6c2.5,0,4.4-0.6,5.6-1.8
		c1.2-1.2,1.9-2.9,1.9-5.3c0.1-4.7,0.2-9.4,0.2-14c0-4.6,0.1-9.3,0.1-14c0-4.7,0-9.3-0.1-14c0-4.7-0.1-9.3-0.2-14
		c0-2.3-0.7-4.1-1.9-5.2c-1.2-1.2-3.1-1.7-5.6-1.7h-6.6V84.3z"/>
	<path class="st0" d="M209.9,193.7c-6.9,0-11.8-1.5-14.7-4.5c-3-3-4.6-7.9-4.9-14.7c0-1.8,0-3.6,0-5.3c0-1.7,0-3.4,0.1-5.2
		c0-1.7,0.1-3.5,0.3-5.3h11.8c-0.2,3.1-0.2,6.2-0.3,9.2c0,3.1,0.1,6,0.3,8.7c0.2,2.2,0.8,3.9,2,5c1.2,1.1,3,1.6,5.5,1.6
		c2.4,0,4.2-0.5,5.2-1.6c1.1-1.1,1.7-2.8,1.9-5c0.2-1.8,0.2-3.4,0.3-4.9c0-1.5,0-3,0-4.6c0-1.5-0.1-3.2-0.3-5.1
		c-0.1-2.2-0.6-4.1-1.3-5.8c-0.8-1.6-2.2-2.7-4.2-3.2l-7.7-2c-3.5-0.9-6.2-2.2-8.1-3.9c-2-1.7-3.4-3.9-4.2-6.5
		c-0.8-2.6-1.3-5.8-1.4-9.5c0-2.1,0-4.2,0-6.3c0-2.1,0-4.3,0.1-6.4c0.2-4.5,0.9-8.1,2.2-11c1.3-2.8,3.4-4.9,6.3-6.1
		c2.9-1.3,6.6-1.9,11.3-1.9c6.6,0,11.5,1.5,14.4,4.4c3,2.9,4.6,7.8,4.8,14.7c0.1,1.9,0.1,4.2,0.1,6.9c0,2.7-0.1,5.5-0.2,8.2h-12
		c0.1-2.9,0.2-5.8,0.2-8.6c0-2.9,0-5.8-0.1-8.7c-0.1-2.2-0.7-3.9-2-5c-1.2-1.1-3-1.6-5.4-1.6c-2.5,0-4.2,0.5-5.3,1.6
		c-1.1,1.1-1.8,2.7-2,5c-0.2,2.5-0.3,5-0.3,7.5c0,2.5,0.1,4.9,0.3,7.4c0.2,2.5,0.6,4.4,1.4,6c0.8,1.5,2.3,2.5,4.4,3l7,1.7
		c3.6,0.8,6.4,2.2,8.5,3.9c2,1.8,3.5,4,4.3,6.7c0.9,2.7,1.4,5.9,1.5,9.5c0.1,1.7,0.1,3.1,0.1,4.4c0,1.3,0,2.6-0.1,3.8
		c0,1.2-0.1,2.6-0.1,4.1c-0.2,6.8-1.8,11.7-4.8,14.7C221.7,192.2,216.8,193.7,209.9,193.7z"/>
	<path class="st0" d="M232,192.7l10.5-92.2h17.5l10.6,92.2h-10.3l-2.2-24.9h-13.5l-2.3,24.9H232z M245.5,158.9h11.6l-1.9-20.2
		l-2.3-29.1h-3.2l-2.2,29.1L245.5,158.9z"/>
	<path class="st0" d="M275.3,192.7v-92.2h8.9v84.2h19v7.9H275.3z"/>
	<path class="st0" d="M307,192.7v-92.2h26v6.9h-18.4v35.4h17.2v6.9h-17.2v36H333v6.9H307z"/>
</g>
</svg>
